<?xml version="1.0" standalone="no"?>
<!DOCTYPE svg PUBLIC "-//W3C//DTD SVG 20010904//EN"
 "http://www.w3.org/TR/2001/REC-SVG-20010904/DTD/svg10.dtd">
<svg version="1.0" xmlns="http://www.w3.org/2000/svg"
 width="240.000000pt" height="240.000000pt" viewBox="0 0 240.000000 240.000000"
 preserveAspectRatio="xMidYMid meet">
<metadata>
Created by potrace 1.14, written by Peter Selinger 2001-2017
</metadata>
<g transform="translate(0.000000,240.000000) scale(0.100000,-0.100000)"
fill="#000000" stroke="none">
<path d="M173 2262 c-24 -4 -39 -34 -51 -102 -15 -91 -5 -191 43 -410 4 -22
43 -145 69 -219 l22 -65 -23 -63 c-24 -67 -27 -77 -48 -198 -23 -131 -26 -164
-31 -295 -2 -69 -4 -128 -4 -132 0 -5 -6 -8 -14 -8 -18 0 -27 -35 -13 -49 6
-6 19 -11 29 -11 11 0 18 -6 17 -13 -1 -6 0 -19 4 -27 3 -8 10 -31 16 -50 6
-20 25 -51 42 -69 33 -37 34 -36 -31 -70 -46 -25 -74 -56 -66 -76 9 -23 35
-29 54 -12 9 8 41 27 71 42 l53 26 26 -23 c15 -13 31 -28 37 -34 27 -28 114
-94 124 -94 6 0 11 -4 11 -8 0 -8 36 -30 133 -79 79 -41 231 -89 367 -118 88
-18 223 -25 285 -14 22 4 59 10 82 14 53 7 181 41 237 61 22 8 46 16 51 18 16
4 108 45 131 59 12 6 37 21 55 31 37 20 125 87 174 131 68 60 65 60 144 15 58
-33 75 -39 87 -29 8 6 14 17 14 23 0 13 -41 56 -53 56 -3 0 -22 9 -41 21 l-35
20 39 56 c24 33 42 72 46 98 5 35 11 45 28 47 26 4 37 58 12 58 -13 0 -16 16
-17 93 0 50 -2 106 -4 122 -11 112 -43 314 -52 328 -3 4 -7 23 -10 40 -3 18
-13 50 -23 72 -19 41 -19 38 16 130 4 11 8 22 9 25 0 3 8 30 18 60 22 74 46
168 53 205 3 17 9 46 13 65 4 19 7 47 7 63 -1 15 1 27 4 27 9 0 3 154 -9 195
-15 56 -24 66 -57 69 -38 3 -169 -37 -263 -81 -79 -37 -217 -118 -239 -140 -7
-7 -17 -13 -21 -13 -4 0 -39 -30 -78 -67 l-71 -68 -44 13 c-23 7 -59 14 -78
17 -19 3 -52 9 -72 14 -40 9 -274 7 -323 -3 -90 -19 -132 -30 -146 -37 -13 -6
-29 3 -65 39 -97 95 -189 157 -341 232 -147 72 -241 101 -300 92z"/>
</g>
</svg>
